<?xml version="1.0" encoding="utf-8"?>
<!-- Generator: Adobe Illustrator 16.0.4, SVG Export Plug-In . SVG Version: 6.00 Build 0)  -->
<!DOCTYPE svg PUBLIC "-//W3C//DTD SVG 1.1//EN" "http://www.w3.org/Graphics/SVG/1.1/DTD/svg11.dtd">
<svg version="1.1" xmlns="http://www.w3.org/2000/svg" xmlns:xlink="http://www.w3.org/1999/xlink" x="0px" y="0px" width="210px"
	 height="220px" viewBox="0 0 210 220" enable-background="new 0 0 210 220" xml:space="preserve">
<g id="dark">
	<ellipse id="base" cx="104.833" cy="168.5" rx="99.833" ry="23.5"/>
	
		<circle id="circle" display="none" fill="none" stroke="#000000" stroke-width="9" stroke-miterlimit="10" cx="104.667" cy="168.333" r="47.5"/>
	<path id="lid" display="none" fill="#FFFFFF" stroke="#000000" stroke-width="9" stroke-miterlimit="10" d="M152.167,162.333
		c-5.301,4.333-21.267,11.5-47.5,11.5s-42.499-7.5-47.5-11.5c0-20.833,21.267-41.5,47.5-41.5S152.167,141.833,152.167,162.333z"/>
	<g id="lid3">
		<path fill="#FFFFFF" d="M104.439,173.5c-24.767,0-39.765-4.967-45.083-9.22l-1.689-1.351v-2.163
			c0-18.698,20.431-40.433,46.772-40.433c26.341,0,46.772,21.735,46.772,40.433v2.134l-1.652,1.35
			C144.088,168.722,129.363,173.5,104.439,173.5z"/>
		<path d="M104.439,124.833c23.346,0,42.272,19.279,42.272,35.933c-4.718,3.856-18.927,8.234-42.272,8.234
			c-23.346,0-37.822-4.675-42.272-8.234C62.167,144.112,81.093,124.833,104.439,124.833 M104.439,115.833
			c-13.128,0-25.885,4.986-35.92,14.039c-9.757,8.802-15.353,20.062-15.353,30.894v4.326l3.379,2.702
			C64.417,174.089,82.768,178,104.439,178c22.172,0,40.104-3.838,47.969-10.267l3.304-2.7v-4.268
			c0-10.831-5.596-22.091-15.353-30.894C130.324,120.819,117.567,115.833,104.439,115.833L104.439,115.833z"/>
	</g>
	
		<path id="lid2" display="none" fill="#FFFFFF" stroke="#000000" stroke-width="9" stroke-linejoin="bevel" stroke-miterlimit="10" d="
		M152.167,162.333c-5.301,4.333-21.267,11.5-47.5,11.5s-42.499-7.5-47.5-11.5c-2.833-17.333,21.267-41.5,47.5-41.5
		S154.696,145,152.167,162.333z"/>
	<circle id="left_wheel" cx="54.334" cy="211.166" r="6.5"/>
	<polygon id="left_leg" points="52.794,208.341 61.834,184.333 72.528,189.194 57.489,211.202 	"/>
	<circle id="right_wheel" cx="154.696" cy="211.166" r="6.5"/>
	<polygon id="right_leg" points="156.235,208.341 147.196,184.333 136.501,189.194 151.541,211.202 	"/>
</g>
<g id="light">
	<ellipse id="base_1_" fill="#FFFFFF" cx="104.833" cy="57.833" rx="99.833" ry="23.5"/>
	
		<circle id="circle_1_" display="none" fill="none" stroke="#000000" stroke-width="9" stroke-miterlimit="10" cx="104.667" cy="57.667" r="47.5"/>
	<path id="lid_1_" display="none" fill="#FFFFFF" stroke="#000000" stroke-width="9" stroke-miterlimit="10" d="M152.167,51.667
		c-5.301,4.333-21.267,11.5-47.5,11.5s-42.499-7.5-47.5-11.5c0-20.833,21.267-41.5,47.5-41.5S152.167,31.167,152.167,51.667z"/>
	<g id="lid3_1_">
		<path d="M104.439,62.833c-24.767,0-39.765-4.967-45.083-9.22l-1.689-1.351v-2.163c0-18.698,20.431-40.433,46.772-40.433
			c26.341,0,46.772,21.735,46.772,40.433v2.134l-1.652,1.35C144.088,58.055,129.363,62.833,104.439,62.833z"/>
		<path fill="#FFFFFF" d="M104.439,14.167c23.346,0,42.272,19.279,42.272,35.933c-4.718,3.856-18.927,8.234-42.272,8.234
			c-23.346,0-37.822-4.675-42.272-8.234C62.167,33.446,81.093,14.167,104.439,14.167 M104.439,5.167
			c-13.128,0-25.885,4.986-35.92,14.039c-9.757,8.802-15.353,20.062-15.353,30.894v4.326l3.379,2.703
			c7.871,6.295,26.223,10.206,47.894,10.206c22.172,0,40.104-3.838,47.969-10.266l3.304-2.701v-4.268
			c0-10.831-5.596-22.091-15.353-30.894C130.324,10.152,117.567,5.167,104.439,5.167L104.439,5.167z"/>
	</g>
	
		<path id="lid2_1_" display="none" fill="#FFFFFF" stroke="#000000" stroke-width="9" stroke-linejoin="bevel" stroke-miterlimit="10" d="
		M152.167,51.667c-5.301,4.333-21.267,11.5-47.5,11.5s-42.499-7.5-47.5-11.5c-2.833-17.333,21.267-41.5,47.5-41.5
		S154.696,34.333,152.167,51.667z"/>
	<circle id="left_wheel_1_" fill="#FFFFFF" cx="54.334" cy="100.5" r="6.5"/>
	<polygon id="left_leg_1_" fill="#FFFFFF" points="52.794,97.674 61.834,73.667 72.528,78.528 57.489,100.536 	"/>
	<circle id="right_wheel_1_" fill="#FFFFFF" cx="154.696" cy="100.5" r="6.5"/>
	<polygon id="right_leg_1_" fill="#FFFFFF" points="156.235,97.674 147.196,73.667 136.501,78.528 151.541,100.536 	"/>
</g>
<g id="guides">
</g>
</svg>
